<svg xmlns="http://www.w3.org/2000/svg" viewBox="0 0 530.6 42.6" class="spitfire-audio-logo img-fluid w-100"><path d="M519.5 10.2c3.1 3 4.6 6.6 4.6 10.9 0 4.5-1.5 8.2-4.6 11.2s-6.9 4.5-11.4 4.5-8.3-1.5-11.4-4.4c-3-2.9-4.5-6.6-4.5-11 0-4.6 1.5-8.3 4.5-11.2s6.9-4.4 11.5-4.4c4.5-.1 8.3 1.4 11.3 4.4m-27.2-4c-4.1 4-6.2 9.1-6.2 15.2 0 6 2.1 10.9 6.2 14.9s9.2 5.9 15.4 5.9c6.5 0 11.8-2 16.1-5.9 4.2-4 6.4-8.9 6.4-15s-2.1-11.1-6.3-15.1-9.5-6-15.8-6c-6.4 0-11.6 2-15.8 6m-27.6 35.5h5.9V.8h-5.9v40.9zM430.9 6.3c1.3.2 2.6.7 4 1.3 1.4.7 2.7 1.5 3.8 2.5 3 2.8 4.5 6.4 4.5 10.8 0 4.5-1.4 8.2-4.3 11.1-.9.9-1.9 1.7-3 2.3-1.1.6-2.4 1.1-4.1 1.5-1.6.4-3.9.6-6.8.6h-7.5V6h7.3c2.8 0 4.9.1 6.1.3m-6.3 35.3c3.6 0 6.1-.1 7.4-.3s2.7-.6 4.2-1.2c2.6-1 5-2.5 6.9-4.4 2-1.9 3.5-4.1 4.5-6.6 1.1-2.5 1.6-5.1 1.6-7.9 0-3.8-1-7.4-2.9-10.6s-4.5-5.7-7.7-7.4S431 .7 425.4.7h-13.8v40.9h13zM388.4 24c0 3.2-.3 5.5-.8 6.8-.5 1.3-1.3 2.5-2.5 3.5-2.2 1.8-5 2.7-8.5 2.7-2.4 0-4.6-.5-6.4-1.4s-3.1-2.1-4-3.6c-.9-1.5-1.3-4.2-1.3-8V.8H359V24c0 3.3.2 5.7.7 7.3.4 1.5 1 2.8 1.7 3.9s1.5 2 2.5 2.9c3.2 2.8 7.5 4.2 12.8 4.2 5.2 0 9.5-1.4 12.7-4.2 1-.8 1.8-1.8 2.5-2.9.7-1.1 1.2-2.4 1.7-4s.7-4 .7-7.1V.8h-5.9V24zm-67.1.4l6.2-14.9 6.6 14.8-12.8.1zm-13.4 17.3h6l5.1-12.1h17.5l5.5 12.1h6L329.6.5h-4.1l-17.6 41.2zm-54.2-.1h23.8v-5.2h-17.9V23.7h16.8v-5.2h-16.8V6h17.3V.8h-23.2v40.8zM224.8 6.4c1.2.4 2.2 1.2 2.9 2.2s1 2.2 1 3.5-.3 2.5-.9 3.5c-.6 1-1.5 1.8-2.6 2.3s-3.1.8-6.1.8h-2.2v-13h1.8c2.9 0 4.9.3 6.1.7m-7.9 35.3V23.9h1.5c1.9 0 3.3.2 4.1.7.8.4 1.7 1.2 2.7 2.1 1 1 2.1 2.3 3.3 4l2 3.2 1.8 3 1.1 1.6c.2.2.3.4.4.5l1.8 2.7h7l-2.2-2.9c-.9-1.2-2-2.9-3.4-5.2-2.3-3.7-4-6.3-5.3-7.8-1.2-1.5-2.5-2.7-3.8-3.5 2.2-.9 3.9-2.2 5.1-3.9 1.2-1.7 1.8-3.8 1.8-6.2 0-3.5-1.2-6.3-3.6-8.3-2.4-2.1-5.7-3.1-9.9-3.1H211v40.9h5.9zm-30 0h5.9V.8h-5.9v40.9zm-38.9 0h5.9V22.6h16v-5.2h-16V6h16V.8h-21.8l-.1 40.9zM99.2 5.9h14v35.8h5.9V5.9h14.3V.7H99.2v5.2zM78.8 41.7h5.9V.8h-5.9v40.9zM58.5 12.2c0 2.1-.6 3.7-1.9 4.8-1.3 1.1-3.1 1.7-5.5 1.7h-6.4V5.9h6.1c5.1 0 7.7 2.1 7.7 6.3M44.7 41.7V23.9H49c3.9 0 6.8-.4 8.9-1.2 2.1-.8 3.7-2.2 4.9-4s1.8-3.9 1.8-6.3c0-3.6-1.2-6.4-3.5-8.5S55.7.7 51.8.7h-13v41h5.9zM18.2 31.6c0 1.5-.6 2.8-1.8 3.8-1.2 1-2.7 1.5-4.6 1.5-4.2 0-7.8-2-11-6v7.4c3.3 2.5 7 3.7 11 3.7 3.5 0 6.4-1 8.6-3.1 2.2-2 3.3-4.7 3.3-8 0-4.6-2.5-8.4-7.5-11.4l-4.5-2.4c-2-1.2-3.5-2.3-4.4-3.4s-1.4-2.2-1.4-3.4c0-1.4.6-2.5 1.8-3.4s2.8-1.3 4.7-1.3c3.4 0 6.6 1.4 9.5 4.3V3.1C19 1.2 15.9.2 12.5.2c-3.6 0-6.5 1-8.7 3S.4 7.8.4 11.1c0 2.1.6 4 1.8 5.7s3.2 3.3 6 5l4.5 2.7c3.7 2.3 5.5 4.6 5.5 7.1" fill="currentColor"></path></svg>